<svg id="Layer_1" data-name="Layer 1" xmlns="http://www.w3.org/2000/svg" width="24" height="24" viewBox="0 0 24 24"><defs><style>.cls-1{fill:none;}.cls-2{fill:#000002;}</style></defs><title>Artboard 1</title><path class="cls-1" d="M11.76,16.83,14.59,14l-2.83-2.83,1.41-1.41L16,12.59l2.83-2.83,1.41,1.41L17.41,14l2.83,2.83-1.41,1.41L16,15.41l-2.83,2.83-1.41-1.41M2,11H5l2.29,5.4L10,6H22V8H11.55L8.68,19H6.22L3.68,13H2Z"/><polygon class="cls-2" points="17.12 0 17.18 6 10 6 7.29 16.4 5 11 2 11 2 13 3.68 13 6.22 19 8.68 19 11.55 8 15.94 8 16.58 8 16 12.59 13.17 9.76 11.76 11.17 14.59 14 11.76 16.83 13.17 18.24 16 15.41 18.83 18.24 20.24 16.83 17.41 14 20.24 11.17 18.83 9.76 16 12.59 15.94 10.99 16.58 8 17.06 8 22 8 22 6 17.06 6 17.06 0 24 0 24 24 0 24 0 0 17.12 0"/></svg>